<?xml version="1.0" standalone="no"?><!DOCTYPE svg PUBLIC "-//W3C//DTD SVG 1.1//EN" "http://www.w3.org/Graphics/SVG/1.1/DTD/svg11.dtd"><svg class="icon" width="200px" height="200.00px" viewBox="0 0 1024 1024" version="1.1" xmlns="http://www.w3.org/2000/svg"><path fill="#333333" d="M512 605.090909a69.818182 69.818182 0 1 1-69.818182 69.818182 69.818182 69.818182 0 0 1 69.818182-69.818182m0-69.818182a139.636364 139.636364 0 1 0 139.636364 139.636364 139.636364 139.636364 0 0 0-139.636364-139.636364zM512 124.509091l360.96 321.163636H798.254545v435.2A26.298182 26.298182 0 0 1 772.887273 907.636364h-521.309091a26.530909 26.530909 0 0 1-25.832727-26.996364V445.672727H151.04L512 124.509091M512 46.545455a46.545455 46.545455 0 0 0-29.323636 10.472727l-418.909091 372.363636a48.64 48.64 0 0 0 30.952727 85.410909H155.927273v365.847273A96.116364 96.116364 0 0 0 251.578182 977.454545h521.309091a95.883636 95.883636 0 0 0 95.185454-96.581818v-365.381818H930.909091a48.64 48.64 0 0 0 30.952727-85.410909l-418.909091-372.363636A46.545455 46.545455 0 0 0 512 46.545455z" /></svg>